<?xml version="1.0" encoding="UTF-8"?>
<svg id="Layer_1" data-name="Layer 1" xmlns="http://www.w3.org/2000/svg" viewBox="0 0 768.61 379.56">
  <defs>
    <style>
      .cls-1 {
        fill: #fcee24;
      }

      .cls-2 {
        fill: #f15a25;
      }

      .cls-3 {
        fill: #32b6c6;
      }

      .cls-4 {
        fill: #ef3d6a;
      }

      .cls-5 {
        fill: #231f20;
      }
    </style>
  </defs>
  <path class="cls-4" d="M376.02,160.6c-1.03,14.83-22.24,11-32.23,15.69-9.3,4.36-22.1,10.27-25.51,27.12-2.69,13.25,2.94,25.7,8.63,32.79,5.51,6.87-2.97,16.69-11.49,8.9-17.98-16.45-30.8-43.31-7.24-75.52,23.56-32.2,69.49-32.45,67.85-8.97Z"/>
  <path class="cls-2" d="M335.17,250.13c.96-14.19,19.17-10.81,28.88-12.34s23.05-12.59,26.29-28.71c2.55-12.68-2.86-24.58-8.31-31.35-5.28-6.56,2.81-15.97,10.98-8.53,17.23,15.7,29.54,41.39,7.05,72.23-22.49,30.85-66.42,31.16-64.9,8.69Z"/>
  <path class="cls-1" d="M373.92,191.08c-1.04,8.2-13.1,4.07-18.98,5.76-5.47,1.57-12.99,3.68-15.46,12.78-1.94,7.16,.92,14.65,3.97,19.14,2.96,4.36-2.2,9.06-6.86,3.9-9.83-10.88-16.39-27.11-1.9-42.91s40.87-11.65,39.23,1.33Z"/>
  <path class="cls-3" d="M348.25,218.41c1.8-5.82,8.19-5.03,12.33-4.2,10.55,2.1,14.21-10.12,13.72-13.44s3.23-6.7,5.38-2.63c3.28,6.19,2.77,18.72-5.56,24.94-13.23,9.87-28.72,4.55-25.87-4.66Z"/>
  <g>
    <path class="cls-5" d="M95,140.87c-2.35,0-4.35-.83-6.02-2.5-1.67-1.67-2.5-3.73-2.5-6.2,0-2.84,.89-4.97,2.68-6.39,1.79-1.42,3.79-2.13,6.02-2.13,2.1,0,4.04,.71,5.83,2.13,1.79,1.42,2.68,3.55,2.68,6.39,0,2.47-.83,4.54-2.5,6.2-1.67,1.67-3.73,2.5-6.2,2.5Zm.19,116.75c-1.6,0-2.93-.52-3.98-1.57-1.05-1.05-1.57-2.37-1.57-3.98v-90.14c0-1.73,.52-3.08,1.57-4.07,1.05-.99,2.37-1.48,3.98-1.48,1.73,0,3.08,.49,4.07,1.48,.99,.99,1.48,2.35,1.48,4.07v90.14c0,1.61-.49,2.93-1.48,3.98-.99,1.05-2.35,1.57-4.07,1.57Z"/>
    <path class="cls-5" d="M130.72,257.62c-1.6,0-2.93-.52-3.98-1.57-1.05-1.05-1.57-2.37-1.57-3.98v-90.14c0-1.73,.52-3.08,1.57-4.07,1.05-.99,2.37-1.48,3.98-1.48,1.73,0,3.08,.49,4.07,1.48,.99,.99,1.48,2.35,1.48,4.07v90.14c0,1.61-.49,2.93-1.48,3.98-.99,1.05-2.35,1.57-4.07,1.57Zm82,0c-1.6,0-2.93-.52-3.98-1.57-1.05-1.05-1.57-2.37-1.57-3.98v-49.79c0-8.14-1.57-14.87-4.72-20.18-3.15-5.3-7.4-9.28-12.77-11.94-5.37-2.65-11.45-3.98-18.23-3.98s-12.65,1.27-17.95,3.79c-5.31,2.53-9.5,6.02-12.59,10.46-3.09,4.44-4.63,9.44-4.63,14.99h-9.25c.49-7.65,2.78-14.53,6.85-20.64,4.07-6.11,9.38-10.92,15.92-14.44,6.54-3.52,13.76-5.28,21.66-5.28,8.88,0,16.87,1.82,23.97,5.46,7.09,3.64,12.68,8.95,16.75,15.92,4.07,6.97,6.11,15.58,6.11,25.82v49.79c0,1.61-.53,2.93-1.57,3.98s-2.38,1.57-3.98,1.57Z"/>
    <path class="cls-5" d="M239.25,166.8c-1.48,0-2.68-.46-3.61-1.39s-1.39-2.13-1.39-3.61,.46-2.68,1.39-3.61c.93-.93,2.13-1.39,3.61-1.39h38.68c1.48,0,2.68,.46,3.61,1.39s1.03,2.21,1.03,3.69-.1,2.6-1.03,3.53c-.93,.93-2.13,1.39-3.61,1.39h-38.68Zm41.36,90.82c-6.79-.12-12.83-1.69-18.14-4.72-5.31-3.02-7.06-6.05-10.02-11.42-2.96-5.37-4.18-12.69-4.18-22.67V116.34c.25-.62,.52-1.12,1.57-2.17,1.05-1.05,2.37-1.57,3.98-1.57,1.73,0,3.11,.53,4.16,1.57,1.05,1.05,1.05,1.27,1.57,2.17v102.48c0,10.35,1.34,16.68,5.78,21.19,4.44,4.51,8.42,6.33,15.46,6.33h4.07c1.73,0,3.11,.53,4.16,1.57,1.05,1.05,1.57,2.44,1.57,4.17,0,1.61-.53,2.93-1.57,3.98s-2.44,1.57-4.16,1.57h-4.26Z"/>
    <path class="cls-5" d="M432.6,300.93c-1.61,0-2.93-.53-3.98-1.57s-1.57-2.38-1.57-3.98v-89.4c.25-9.75,2.62-18.42,7.13-26.01,4.5-7.59,10.64-13.6,18.42-18.05,7.77-4.44,16.47-6.66,26.1-6.66s18.72,2.25,26.56,6.76c7.83,4.51,14,10.67,18.51,18.51,4.5,7.84,6.76,16.69,6.76,26.56s-2.25,18.54-6.76,26.38c-4.51,7.84-10.67,14.01-18.51,18.51-7.84,4.51-16.69,6.76-26.56,6.76-8.88,0-16.88-1.91-23.97-5.74-7.1-3.82-12.62-8.95-16.57-15.36v57.75c0,1.6-.49,2.93-1.48,3.98-.99,1.05-2.35,1.57-4.07,1.57Zm46.09-52.57c7.77,0,14.71-1.82,20.82-5.46,6.11-3.64,10.95-8.58,14.53-14.81,3.58-6.23,5.37-13.23,5.37-21.01s-1.79-14.96-5.37-21.19c-3.58-6.23-8.42-11.17-14.53-14.81-6.11-3.64-13.05-5.46-20.82-5.46s-14.56,1.82-20.73,5.46c-6.17,3.64-11.01,8.58-14.53,14.81-3.52,6.23-5.28,13.3-5.28,21.19s1.76,14.78,5.28,21.01c3.52,6.23,8.36,11.17,14.53,14.81,6.17,3.64,13.08,5.46,20.73,5.46Z"/>
    <path class="cls-5" d="M558.46,140.44c-2.35,0-4.35-.83-6.02-2.5-1.67-1.67-2.5-3.73-2.5-6.2,0-2.84,.89-4.97,2.68-6.39,1.79-1.42,3.79-2.13,6.02-2.13,2.1,0,4.04,.71,5.83,2.13,1.79,1.42,2.68,3.55,2.68,6.39,0,2.47-.83,4.54-2.5,6.2-1.67,1.67-3.73,2.5-6.2,2.5Zm.19,117.18c-1.61,0-2.93-.52-3.98-1.57-1.05-1.05-1.57-2.37-1.57-3.98v-90.14c0-1.73,.52-3.08,1.57-4.07,1.05-.99,2.37-1.48,3.98-1.48,1.73,0,3.08,.49,4.07,1.48,.99,.99,1.48,2.35,1.48,4.07v90.14c0,1.61-.5,2.93-1.48,3.98-.99,1.05-2.34,1.57-4.07,1.57Z"/>
    <path class="cls-5" d="M638.61,258.73c-9.87,0-18.73-2.25-26.56-6.76-7.84-4.5-14.01-10.67-18.51-18.51-4.51-7.83-6.76-16.63-6.76-26.38s2.25-18.72,6.76-26.56c4.5-7.83,10.67-14,18.51-18.51,7.83-4.5,16.69-6.76,26.56-6.76s18.69,2.25,26.47,6.76c7.77,4.51,13.91,10.67,18.42,18.51,4.5,7.84,6.76,16.69,6.76,26.56l-4.63,7.4c0,8.39-2.07,15.92-6.2,22.58-4.14,6.66-9.72,11.94-16.75,15.83s-15.06,5.83-24.06,5.83Zm0-10.37c7.77,0,14.71-1.82,20.82-5.46,6.11-3.64,10.92-8.58,14.44-14.81,3.52-6.23,5.27-13.23,5.27-21.01s-1.76-14.96-5.27-21.19c-3.52-6.23-8.33-11.17-14.44-14.81-6.11-3.64-13.05-5.46-20.82-5.46s-14.56,1.82-20.73,5.46c-6.17,3.64-11.04,8.58-14.62,14.81-3.58,6.23-5.37,13.3-5.37,21.19s1.79,14.78,5.37,21.01c3.58,6.23,8.45,11.17,14.62,14.81,6.17,3.64,13.08,5.46,20.73,5.46Zm46.27,9.25c-1.73,0-3.12-.52-4.17-1.57-1.05-1.05-1.57-2.37-1.57-3.98v-33.87l3.52-11.11h7.59v44.98c0,1.61-.49,2.93-1.48,3.98-.99,1.05-2.28,1.57-3.89,1.57Z"/>
  </g>
</svg>