<svg xmlns:xlink="http://www.w3.org/1999/xlink"  id="TiimelyHomeLogo" viewBox="0 0 645.6 128.1" xmlns="http://www.w3.org/2000/svg" class="h-7 max-w-full"><g><g><rect fill="#000404" x="54" y="48.9" width="17.6" height="53.6"></rect><path fill="#000404" d="m170.6,47.8c-13.2,0-16.6,7.1-16.6,7.1l-.5-.8c-2.4-3.5-8-6.4-13.4-6.4-10,0-15.3,8.1-15.3,8.1l-2.8-6.9h-14.1v53.6h17.3v-32.4c0-3.4,4.1-8.2,8.9-8.2s6.2,3.9,6.2,8.7v31.9h15.8v-32.4c0-3.4,4.1-8.2,8.9-8.2s6.2,3.9,6.2,8.7v31.9h17.3l-.1-38.7c-.9-16.7-17.8-16-17.8-16Z"></path><circle fill="#000404" cx="99.1" cy="35.4" r="8.8" transform="translate(-5.48 23.72) rotate(-13.28)"></circle><circle fill="#000404" cx="74.7" cy="35.4" r="8.8" transform="translate(13.41 90.87) rotate(-67.5)"></circle><polygon fill="#000404" points="80.9 102.5 98.5 102.5 98.6 48.9 80.9 48.9 80.9 102.5"></polygon><polygon fill="#000404" points="59 27.3 0 27.3 0 43.5 20.5 43.5 20.5 102.5 38.9 102.5 38.9 43.5 59 43.5 59 27.3"></polygon><rect fill="#000404" x="254.3" y="25.9" width="17.6" height="76.6"></rect><path fill="#000404" d="m315.9,48.9l-9.9,30.2-9.9-30.2h-18.7l20.2,49.8c-1.7,10-10.5,10.4-12.7,10.4v15.7c18.6-.1,23.4-9.7,28.7-23.8l21.1-52.1h-18.8Z"></path><g><g><rect fill="#56f366" x="363.3" y="6" width="276.3" height="116.1" rx="12.2" ry="12.2"></rect><path d="m627.4,0h-251.9c-10,0-18.2,8.1-18.2,18.2v91.7c0,10,8.1,18.2,18.2,18.2h251.9c10.1,0,18.2-8.1,18.2-18.2V18.2c0-10-8.1-18.2-18.2-18.2Zm12.2,109.9c0,6.84-5.36,12.2-12.2,12.2h-251.9c-6.73,0-12.2-5.47-12.2-12.2V18.2c0-6.73,5.47-12.2,12.2-12.2h251.9c6.73,0,12.2,5.47,12.2,12.2v91.7Z"></path></g><g><path fill="#000404" d="m415.5,48c-4.3,0-7.7,1.4-10,2.7-1.3.7-2.5,1.7-3.4,2.7v-28h-9.6v71.2h9.6v-27.8c0-6.3,5.2-11.8,11.8-11.8,6,0,11.2,5.5,11.2,11.8v27.8h9.6v-27.8c.1-12.3-8.5-20.8-19.2-20.8Z"></path><path fill="#000404" d="m465.3,48c-12.9,0-23,10.2-23,24.6s10.2,24.6,23,24.6,23-10.2,23-24.6-10.1-24.6-23-24.6Zm0,40.1c-7,0-13.4-6.4-13.4-15.5s6.4-15.5,13.4-15.5,13.4,6.4,13.4,15.5-6.4,15.5-13.4,15.5Z"></path><path fill="#000404" d="m545.1,48c-4.8,0-8.4,1.9-10.8,3.8-1.4,1.2-2.7,2.4-3.6,3.8-1-1.4-2-2.6-3.3-3.8-2.2-1.8-5.5-3.8-10.1-3.8-3.8,0-6.6,1.4-8.7,2.7-1.2.7-2.2,1.7-3.1,2.7l-2.1-4.8h-7v48.2h9.6v-29c0-6.4,4.3-10.7,9.1-10.7s9.1,4.3,9.1,10.7v28.9h9.6v-28.9c0-6.4,4.3-10.7,9.1-10.7s9.1,4.3,9.1,10.7v28.9h9.6v-28.9c.1-12.4-7.5-19.8-16.5-19.8Z"></path><path fill="#000404" d="m591.7,48c-12.4,0-22.5,10.2-22.5,24.6s10.2,24.6,23,24.6c11.2,0,17.8-6.4,20.9-14.5h-10.2c-1.6,2.1-4.8,5.4-10.7,5.4-7,0-12.3-5.2-12.9-11.2h34.3l.2-1.3c.1-.7.3-1.8.3-3,0-14.4-10-24.6-22.4-24.6Zm-12.3,20.9c1.2-7,5.9-11.8,12.3-11.8,7.6,0,12.2,4.8,13.4,11.8h-25.7Z"></path></g></g><path fill="#000404" d="m222.7,89.69c-5.1,0-9.74-2.83-10.92-8.68h36.72v-2.02c0-16.6-7.2-31.4-26.6-31.4s-27.6,14.5-27.6,28.2,8.9,28.3,27.6,28.3c12.1,0,20.5-5.1,25.4-15.3l-14.63-3.73c-3.04,3.51-6.51,4.63-9.97,4.63h0Zm-.5-30.6c5.79,0,10.52,4.8,10.42,11h-20.84c-.21-6.2,4.53-11,10.42-11h0Z"></path></g></g></svg>